<?xml version="1.0" encoding="utf-8"?>
<!-- Generator: Adobe Illustrator 22.1.0, SVG Export Plug-In . SVG Version: 6.00 Build 0)  -->
<svg version="1.1" id="Capa_1" xmlns="http://www.w3.org/2000/svg" xmlns:xlink="http://www.w3.org/1999/xlink" x="0px" y="0px"
	 viewBox="0 0 300 300" style="enable-background:new 0 0 300 300;" xml:space="preserve">
<style type="text/css">
	.st0{opacity:0.8;fill:#FFFFFF;}
	.st1{fill:#FF1D25;}
</style>
<g>
	<circle class="st0" cx="150.5" cy="149.5" r="146.5"/>
	<g>
		<path d="M178.8,120.7c0,0.4,0,0.7,0,0.9c-0.1,17.6-0.1,35.1-0.2,52.7c-0.1,12.6-0.2,25.2-0.5,37.8c-0.1,5.9-1.6,11.6-4.3,16.9
			c-1.8,3.5-4.1,6.5-7.4,8.6c-2.5,1.6-5.1,3.1-7.8,4.4c-1.5,0.7-3.1,1.2-4.8,1.3c-4.1,0.3-8.2,0.2-12.2,0.3c-0.5,0-1.1-0.1-1.6-0.2
			c-3.6-0.9-6.9-2.3-9.8-4.5c-2.2-1.6-3.7-3.7-4.6-6.3c-1.1-3.2-1.6-6.6-1.7-10c-0.2-6.4-0.4-12.9-0.5-19.3
			c-0.1-27.4-0.2-54.7-0.3-82.1c0-0.3,0-0.6,0-0.9c-13.6,0-27.1,0-40.7,0c0,0.4,0,0.7,0,1c0,30,0,60,0,90.1c0,6.2,0.1,12.4,0.9,18.6
			c0.7,5.9,2.3,11.5,5,16.8c3,6,7.4,10.9,12.3,15.4c3,2.8,6.5,5,10.4,6.4c5,1.9,10.2,2.7,15.5,3.1c6.8,0.4,13.5,0,20.2-1.2
			c7.6-1.4,14.5-4.3,20.5-9.4c4.3-3.6,8.1-7.7,12-11.7c0.9-0.9,1.9-1.8,2.9-2.7c-0.2,7.6-0.4,15.2-0.6,22.9c12.4,0,24.7,0,37,0
			c0-49.8,0-99.6,0-149.4C205.2,120.5,192,120.6,178.8,120.7z"/>
		<g>
			<path class="st1" d="M105.4,106.3c31.3,0,62.5,0,93.7,0c0-7.2,0-14.4,0-21.6c-31.2,0-62.4,0-93.7,0
				C105.4,92,105.4,99.1,105.4,106.3z"/>
			<path class="st1" d="M125,60c0.1-10.8-8.5-19.7-19.2-19.8c-10.7-0.1-19.4,8.6-19.5,19.6c-0.1,10.7,8.6,19.6,19.2,19.7
				C116.1,79.6,124.9,70.8,125,60z"/>
			<path class="st1" d="M150.3,79.4c10.7,0,19.3-8.7,19.4-19.5c0-10.9-8.6-19.6-19.3-19.6c-10.7,0-19.4,8.7-19.4,19.6
				C130.9,70.7,139.6,79.4,150.3,79.4z"/>
			<path class="st1" d="M194.9,40.2c-10.7,0-19.4,8.8-19.4,19.6c0,10.9,8.7,19.6,19.4,19.6c10.7,0,19.4-8.8,19.3-19.6
				C214.3,49,205.6,40.2,194.9,40.2z"/>
			<path class="st1" d="M150.1,34.8c6.9,0,12.6-5.5,12.6-12.3c0-6.9-5.6-12.4-12.6-12.4c-6.9,0-12.6,5.5-12.6,12.3
				C137.5,29.3,143.1,34.8,150.1,34.8z"/>
		</g>
	</g>
</g>
</svg>
