<?xml version="1.0" standalone="no"?>
<!DOCTYPE svg PUBLIC "-//W3C//DTD SVG 20010904//EN"
 "http://www.w3.org/TR/2001/REC-SVG-20010904/DTD/svg10.dtd">
<svg version="1.0" xmlns="http://www.w3.org/2000/svg"
 width="1250.000000pt" height="1250.000000pt" viewBox="0 0 1250.000000 1250.000000"
 preserveAspectRatio="xMidYMid meet">
<metadata>
Created by potrace 1.11, written by Peter Selinger 2001-2013
</metadata>
<g transform="translate(0.000000,1250.000000) scale(0.100000,-0.100000)"
fill="#000000" stroke="none">
<path d="M5913 12265 c-126 -35 -203 -102 -271 -232 -110 -216 -136 -410 -108
-814 17 -249 35 -329 84 -389 29 -34 29 -35 14 -75 -27 -66 -21 -361 11 -625
51 -405 108 -781 126 -831 24 -62 63 -129 90 -153 l20 -18 -23 -47 c-37 -72
-45 -113 -61 -306 -9 -99 -27 -306 -41 -460 -25 -281 -25 -327 3 -394 67 -162
293 -369 438 -401 104 -23 220 20 322 118 119 117 151 186 202 439 67 332 65
302 66 1158 0 921 5 862 -112 1300 -49 184 -50 211 -15 325 14 44 17 92 16
235 -2 310 -62 656 -145 832 -66 138 -202 273 -329 323 -71 29 -213 36 -287
15z"/>
<path d="M9175 11589 c-348 -51 -538 -341 -622 -949 -21 -153 -25 -533 -6
-594 12 -38 11 -40 -31 -88 -89 -102 -171 -273 -211 -443 -53 -220 -78 -426
-81 -653 l-3 -214 -65 -68 c-152 -161 -220 -304 -281 -593 -52 -241 -55 -457
-10 -592 25 -73 115 -203 189 -273 151 -141 329 -136 486 14 129 123 245 349
453 884 63 164 80 219 85 275 4 56 11 79 35 114 77 112 207 437 305 761 84
278 90 308 112 592 11 133 13 142 70 285 71 180 121 343 157 512 24 111 27
148 27 316 0 182 -1 195 -32 310 -40 150 -107 291 -162 338 -47 40 -84 52
-200 67 -95 11 -130 11 -215 -1z"/>
<path d="M2465 11576 c-79 -19 -174 -75 -245 -146 -139 -138 -204 -336 -181
-559 20 -188 75 -350 226 -656 136 -276 261 -475 412 -656 l73 -88 0 -61 c0
-152 49 -294 218 -634 169 -343 271 -513 386 -650 31 -36 57 -79 65 -106 23
-80 89 -203 147 -275 78 -97 178 -252 329 -510 207 -356 236 -393 345 -444 50
-24 66 -26 175 -26 144 1 212 22 286 92 73 68 102 143 107 275 7 193 -26 311
-177 627 -54 113 -133 296 -176 406 -105 272 -117 297 -163 347 -37 40 -40 48
-46 122 -11 128 -110 421 -258 770 -79 185 -198 420 -244 480 -29 38 -38 60
-46 119 -15 112 -73 276 -152 430 -79 156 -341 582 -459 747 -180 252 -321
371 -476 400 -65 12 -82 12 -146 -4z"/>
<path d="M10928 9416 c-119 -42 -204 -130 -283 -291 -66 -134 -96 -225 -176
-527 -86 -328 -87 -334 -99 -522 l-11 -168 -43 -72 c-92 -151 -189 -370 -307
-695 -33 -90 -67 -160 -103 -215 -80 -121 -307 -592 -340 -705 -47 -162 -67
-575 -32 -656 43 -99 143 -159 266 -160 136 0 234 54 364 201 205 231 394 489
467 640 29 59 52 92 88 122 104 88 259 321 391 587 82 166 105 233 126 363 17
99 58 211 136 365 140 279 208 730 157 1042 -16 99 -77 284 -130 390 -104 213
-227 316 -378 315 -31 -1 -72 -7 -93 -14z"/>
<path d="M5915 7006 c-197 -33 -431 -130 -795 -328 -282 -154 -333 -177 -407
-188 -302 -43 -532 -246 -612 -541 -103 -374 23 -814 316 -1105 138 -138 318
-244 508 -299 50 -14 167 -41 260 -60 426 -85 824 -108 1660 -98 512 6 749 -2
848 -28 212 -56 289 -539 171 -1069 -65 -287 -168 -471 -420 -747 -93 -103
-121 -114 -221 -89 -171 42 -378 183 -557 378 -197 216 -256 334 -416 844
-121 383 -155 463 -223 520 -77 65 -263 130 -457 159 -242 36 -665 29 -880
-15 -164 -34 -343 -136 -442 -252 -133 -158 -205 -318 -279 -628 -29 -118 -54
-195 -89 -271 -55 -118 -93 -239 -117 -374 -23 -126 -23 -414 1 -560 50 -316
163 -631 304 -852 113 -175 341 -350 672 -517 421 -212 850 -328 1155 -313
126 7 187 23 265 70 144 87 167 76 328 -164 39 -59 90 -123 114 -142 82 -66
194 -111 363 -144 130 -26 574 -25 765 0 168 23 373 62 465 89 470 137 924
668 1147 1342 65 198 91 359 123 757 48 609 89 855 219 1311 35 123 71 255 80
293 100 448 74 917 -69 1248 -53 124 -94 186 -180 273 -69 70 -90 85 -154 109
-127 48 -212 120 -716 608 -441 427 -552 518 -684 556 -172 51 -340 64 -460
36 -35 -9 -114 -42 -176 -74 -63 -33 -139 -65 -171 -71 -87 -18 -299 -7 -394
19 -112 32 -280 119 -409 210 -69 49 -134 87 -165 96 -73 22 -179 26 -271 11z"/>
<path d="M1625 6084 c-11 -2 -51 -12 -90 -20 -304 -69 -505 -291 -505 -556 0
-66 26 -188 57 -265 32 -79 148 -284 218 -383 86 -121 158 -194 370 -370 321
-268 731 -643 823 -754 49 -59 119 -164 192 -291 160 -278 284 -428 458 -557
142 -105 200 -131 303 -136 76 -4 90 -2 136 21 63 32 116 93 145 166 18 48 21
75 21 181 -1 105 -6 143 -31 240 -44 172 -84 267 -137 327 -27 31 -54 75 -65
109 -42 122 -215 429 -392 694 -102 152 -135 191 -194 226 l-42 24 -11 98
c-37 302 -140 594 -286 812 -118 176 -238 287 -388 359 -130 63 -179 72 -382
76 -99 2 -189 2 -200 -1z"/>
</g>
</svg>
