<svg version="1" xmlns="http://www.w3.org/2000/svg" width="1666.667" height="1666.667" viewBox="0 0 1250 1250"><path d="M591.3 23.5C578.7 27 571 33.7 564.2 46.7c-11 21.6-13.6 41-10.8 81.4 1.7 24.9 3.5 32.9 8.4 38.9 2.9 3.4 2.9 3.5 1.4 7.5-2.7 6.6-2.1 36.1 1.1 62.5 5.1 40.5 10.8 78.1 12.6 83.1 2.4 6.2 6.3 12.9 9 15.3l2 1.8-2.3 4.7c-3.7 7.2-4.5 11.3-6.1 30.6-.9 9.9-2.7 30.6-4.1 46-2.5 28.1-2.5 32.7.3 39.4 6.7 16.2 29.3 36.9 43.8 40.1 10.4 2.3 22-2 32.2-11.8 11.9-11.7 15.1-18.6 20.2-43.9 6.7-33.2 6.5-30.2 6.6-115.8 0-92.1.5-86.2-11.2-130-4.9-18.4-5-21.1-1.5-32.5 1.4-4.4 1.7-9.2 1.6-23.5-.2-31-6.2-65.6-14.5-83.2C646.3 43.5 632.7 30 620 25c-7.1-2.9-21.3-3.6-28.7-1.5zm326.2 67.6c-34.8 5.1-53.8 34.1-62.2 94.9-2.1 15.3-2.5 53.3-.6 59.4 1.2 3.8 1.1 4-3.1 8.8-8.9 10.2-17.1 27.3-21.1 44.3-5.3 22-7.8 42.6-8.1 65.3l-.3 21.4-6.5 6.8c-15.2 16.1-22 30.4-28.1 59.3-5.2 24.1-5.5 45.7-1 59.2 2.5 7.3 11.5 20.3 18.9 27.3 15.1 14.1 32.9 13.6 48.6-1.4 12.9-12.3 24.5-34.9 45.3-88.4 6.3-16.4 8-21.9 8.5-27.5.4-5.6 1.1-7.9 3.5-11.4 7.7-11.2 20.7-43.7 30.5-76.1 8.4-27.8 9-30.8 11.2-59.2 1.1-13.3 1.3-14.2 7-28.5 7.1-18 12.1-34.3 15.7-51.2 2.4-11.1 2.7-14.8 2.7-31.6 0-18.2-.1-19.5-3.2-31-4-15-10.7-29.1-16.2-33.8-4.7-4-8.4-5.2-20-6.7-9.5-1.1-13-1.1-21.5.1zm-671 1.3c-7.9 1.9-17.4 7.5-24.5 14.6-13.9 13.8-20.4 33.6-18.1 55.9 2 18.8 7.5 35 22.6 65.6 13.6 27.6 26.1 47.5 41.2 65.6l7.3 8.8v6.1c0 15.2 4.9 29.4 21.8 63.4 16.9 34.3 27.1 51.3 38.6 65 3.1 3.6 5.7 7.9 6.5 10.6 2.3 8 8.9 20.3 14.7 27.5 7.8 9.7 17.8 25.2 32.9 51 20.7 35.6 23.6 39.3 34.5 44.4 5 2.4 6.6 2.6 17.5 2.6 14.4-.1 21.2-2.2 28.6-9.2 7.3-6.8 10.2-14.3 10.7-27.5.7-19.3-2.6-31.1-17.7-62.7-5.4-11.3-13.3-29.6-17.6-40.6-10.5-27.2-11.7-29.7-16.3-34.7-3.7-4-4-4.8-4.6-12.2-1.1-12.8-11-42.1-25.8-77-7.9-18.5-19.8-42-24.4-48-2.9-3.8-3.8-6-4.6-11.9-1.5-11.2-7.3-27.6-15.2-43-7.9-15.6-34.1-58.2-45.9-74.7-18-25.2-32.1-37.1-47.6-40-6.5-1.2-8.2-1.2-14.6.4zm846.3 216c-11.9 4.2-20.4 13-28.3 29.1-6.6 13.4-9.6 22.5-17.6 52.7-8.6 32.8-8.7 33.4-9.9 52.2l-1.1 16.8-4.3 7.2c-9.2 15.1-18.9 37-30.7 69.5-3.3 9-6.7 16-10.3 21.5-8 12.1-30.7 59.2-34 70.5-4.7 16.2-6.7 57.5-3.2 65.6 4.3 9.9 14.3 15.9 26.6 16 13.6 0 23.4-5.4 36.4-20.1 20.5-23.1 39.4-48.9 46.7-64 2.9-5.9 5.2-9.2 8.8-12.2 10.4-8.8 25.9-32.1 39.1-58.7 8.2-16.6 10.5-23.3 12.6-36.3 1.7-9.9 5.8-21.1 13.6-36.5 14-27.9 20.8-73 15.7-104.2-1.6-9.9-7.7-28.4-13-39-10.4-21.3-22.7-31.6-37.8-31.5-3.1.1-7.2.7-9.3 1.4zm-501.3 241c-19.7 3.3-43.1 13-79.5 32.8-28.2 15.4-33.3 17.7-40.7 18.8-30.2 4.3-53.2 24.6-61.2 54.1-10.3 37.4 2.3 81.4 31.6 110.5 13.8 13.8 31.8 24.4 50.8 29.9 5 1.4 16.7 4.1 26 6 42.6 8.5 82.4 10.8 166 9.8 51.2-.6 74.9.2 84.8 2.8 21.2 5.6 28.9 53.9 17.1 106.9-6.5 28.7-16.8 47.1-42 74.7-9.3 10.3-12.1 11.4-22.1 8.9-17.1-4.2-37.8-18.3-55.7-37.8-19.7-21.6-25.6-33.4-41.6-84.4-12.1-38.3-15.5-46.3-22.3-52-7.7-6.5-26.3-13-45.7-15.9-24.2-3.6-66.5-2.9-88 1.5-16.4 3.4-34.3 13.6-44.2 25.2-13.3 15.8-20.5 31.8-27.9 62.8-2.9 11.8-5.4 19.5-8.9 27.1-5.5 11.8-9.3 23.9-11.7 37.4-2.3 12.6-2.3 41.4.1 56 5 31.6 16.3 63.1 30.4 85.2 11.3 17.5 34.1 35 67.2 51.7 42.1 21.2 85 32.8 115.5 31.3 12.6-.7 18.7-2.3 26.5-7 14.4-8.7 16.7-7.6 32.8 16.4 3.9 5.9 9 12.3 11.4 14.2 8.2 6.6 19.4 11.1 36.3 14.4 13 2.6 57.4 2.5 76.5 0 16.8-2.3 37.3-6.2 46.5-8.9 47-13.7 92.4-66.8 114.7-134.2 6.5-19.8 9.1-35.9 12.3-75.7 4.8-60.9 8.9-85.5 21.9-131.1 3.5-12.3 7.1-25.5 8-29.3 10-44.8 7.4-91.7-6.9-124.8-5.3-12.4-9.4-18.6-18-27.3-6.9-7-9-8.5-15.4-10.9-12.7-4.8-21.2-12-71.6-60.8-44.1-42.7-55.2-51.8-68.4-55.6-17.2-5.1-34-6.4-46-3.6-3.5.9-11.4 4.2-17.6 7.4-6.3 3.3-13.9 6.5-17.1 7.1-8.7 1.8-29.9.7-39.4-1.9-11.2-3.2-28-11.9-40.9-21-6.9-4.9-13.4-8.7-16.5-9.6-7.3-2.2-17.9-2.6-27.1-1.1zm-429 92.2c-1.1.2-5.1 1.2-9 2-30.4 6.9-50.5 29.1-50.5 55.6 0 6.6 2.6 18.8 5.7 26.5 3.2 7.9 14.8 28.4 21.8 38.3 8.6 12.1 15.8 19.4 37 37 32.1 26.8 73.1 64.3 82.3 75.4 4.9 5.9 11.9 16.4 19.2 29.1 16 27.8 28.4 42.8 45.8 55.7 14.2 10.5 20 13.1 30.3 13.6 7.6.4 9 .2 13.6-2.1 6.3-3.2 11.6-9.3 14.5-16.6 1.8-4.8 2.1-7.5 2.1-18.1-.1-10.5-.6-14.3-3.1-24-4.4-17.2-8.4-26.7-13.7-32.7-2.7-3.1-5.4-7.5-6.5-10.9-4.2-12.2-21.5-42.9-39.2-69.4-10.2-15.2-13.5-19.1-19.4-22.6l-4.2-2.4-1.1-9.8c-3.7-30.2-14-59.4-28.6-81.2-11.8-17.6-23.8-28.7-38.8-35.9-13-6.3-17.9-7.2-38.2-7.6-9.9-.2-18.9-.2-20 .1z"/></svg>