<svg xmlns="http://www.w3.org/2000/svg" viewBox="0 0 300 300"><circle cx="150.5" cy="149.5" r="146.5" opacity=".8" fill="#fff"/><path d="M178.8 120.7v.9c-.1 17.6-.1 35.1-.2 52.7-.1 12.6-.2 25.2-.5 37.8-.1 5.9-1.6 11.6-4.3 16.9-1.8 3.5-4.1 6.5-7.4 8.6-2.5 1.6-5.1 3.1-7.8 4.4-1.5.7-3.1 1.2-4.8 1.3-4.1.3-8.2.2-12.2.3-.5 0-1.1-.1-1.6-.2-3.6-.9-6.9-2.3-9.8-4.5-2.2-1.6-3.7-3.7-4.6-6.3-1.1-3.2-1.6-6.6-1.7-10-.2-6.4-.4-12.9-.5-19.3l-.3-82.1v-.9H82.4v91.1c0 6.2.1 12.4.9 18.6.7 5.9 2.3 11.5 5 16.8 3 6 7.4 10.9 12.3 15.4 3 2.8 6.5 5 10.4 6.4 5 1.9 10.2 2.7 15.5 3.1 6.8.4 13.5 0 20.2-1.2 7.6-1.4 14.5-4.3 20.5-9.4 4.3-3.6 8.1-7.7 12-11.7.9-.9 1.9-1.8 2.9-2.7-.2 7.6-.4 15.2-.6 22.9h37V120.2c-13.3.3-26.5.4-39.7.5z"/><path d="M105.4 106.3h93.7V84.7h-93.7v21.6zM125 60c.1-10.8-8.5-19.7-19.2-19.8-10.7-.1-19.4 8.6-19.5 19.6-.1 10.7 8.6 19.6 19.2 19.7 10.6.1 19.4-8.7 19.5-19.5zm25.3 19.4c10.7 0 19.3-8.7 19.4-19.5 0-10.9-8.6-19.6-19.3-19.6-10.7 0-19.4 8.7-19.4 19.6-.1 10.8 8.6 19.5 19.3 19.5zm44.6-39.2c-10.7 0-19.4 8.8-19.4 19.6 0 10.9 8.7 19.6 19.4 19.6s19.4-8.8 19.3-19.6c.1-10.8-8.6-19.6-19.3-19.6zm-44.8-5.4c6.9 0 12.6-5.5 12.6-12.3 0-6.9-5.6-12.4-12.6-12.4-6.9 0-12.6 5.5-12.6 12.3 0 6.9 5.6 12.4 12.6 12.4z" fill="#ff1d25"/></svg>